<svg xmlns:xlink="http://www.w3.org/1999/xlink" xmlns="http://www.w3.org/2000/svg" style="width:100%;height:100%;" viewBox="0 0 32 32" preserveAspectRatio="none" width="32" height="32"><defs><svg width="32" height="32" viewBox="0 0 32 32" fill="none" id="svg-1969035613_1557">
<rect x="0.478505" y="0.478505" width="31.043" height="31.043" rx="5.5215" fill="#FD6316"></rect>
<rect x="0.478505" y="0.478505" width="31.043" height="31.043" rx="5.5215" stroke="url(&quot;#svg-1969035613_1557_paint0_linear_1_4704&quot;)" stroke-width="0.957009px" fill="none"></rect>
<path d="M7.1756 26.1754C6.42952 26.1754 5.82471 25.5705 5.82471 24.8245V16.2688C5.82471 15.5227 6.42952 14.9179 7.1756 14.9179H15.7313C16.4774 14.9179 17.0822 15.5227 17.0822 16.2688V24.8245C17.0822 25.5705 16.4774 26.1754 15.7313 26.1754H7.1756Z" fill="url(&quot;#svg-1969035613_1557_paint1_linear_1_4704&quot;)"></path>
<path d="M18.7118 14.8007C17.834 14.9138 17.0864 14.1662 17.1994 13.2883L18.0847 6.41461C18.1564 5.8583 18.8357 5.62666 19.2323 6.02328L25.9769 12.7679C26.3735 13.1645 26.1418 13.8438 25.5855 13.9154L18.7118 14.8007Z" fill="url(&quot;#svg-1969035613_1557_paint2_linear_1_4704&quot;)"></path>
<defs>
<linearGradient id="svg-1969035613_1557_paint0_linear_1_4704" x1="0.144658" y1="-0.0312724" x2="31.8866" y2="32.0313" gradientUnits="userSpaceOnUse">
<stop stop-color="white" stop-opacity="0.5"></stop>
<stop offset="1" stop-color="white" stop-opacity="0"></stop>
</linearGradient>
<linearGradient id="svg-1969035613_1557_paint1_linear_1_4704" x1="16.0001" y1="5.82465" x2="16.0001" y2="26.1754" gradientUnits="userSpaceOnUse">
<stop stop-color="white"></stop>
<stop offset="1" stop-color="#E1E1E1"></stop>
</linearGradient>
<linearGradient id="svg-1969035613_1557_paint2_linear_1_4704" x1="16.0001" y1="5.82465" x2="16.0001" y2="26.1754" gradientUnits="userSpaceOnUse">
<stop stop-color="white"></stop>
<stop offset="1" stop-color="#E1E1E1"></stop>
</linearGradient>
<linearGradient id="svg-1969035613_1557_paint0_linear_1_4704" x1="0.144658" y1="-0.0312724" x2="31.8866" y2="32.0313" gradientUnits="userSpaceOnUse">
<stop stop-color="white" stop-opacity="0.5"></stop>
<stop offset="1" stop-color="white" stop-opacity="0"></stop>
</linearGradient><linearGradient id="svg-1969035613_1557_paint1_linear_1_4704" x1="16.0001" y1="5.82465" x2="16.0001" y2="26.1754" gradientUnits="userSpaceOnUse">
<stop stop-color="white"></stop>
<stop offset="1" stop-color="#E1E1E1"></stop>
</linearGradient><linearGradient id="svg-1969035613_1557_paint2_linear_1_4704" x1="16.0001" y1="5.82465" x2="16.0001" y2="26.1754" gradientUnits="userSpaceOnUse">
<stop stop-color="white"></stop>
<stop offset="1" stop-color="#E1E1E1"></stop>
</linearGradient></defs>
</svg></defs><use href="#svg-1969035613_1557"></use></svg>